<?xml version="1.0" encoding="UTF-8"?>
<svg width="697px" height="697px" viewBox="0 0 697 697" version="1.1" xmlns="http://www.w3.org/2000/svg" xmlns:xlink="http://www.w3.org/1999/xlink">
    <!-- Generator: Sketch 51 (57462) - http://www.bohemiancoding.com/sketch -->
    <title>Group</title>
    <desc>Created with Sketch.</desc>
    <defs>
        <radialGradient cx="76.7071296%" cy="12.9982331%" fx="76.7071296%" fy="12.9982331%" r="101.862496%" id="radialGradient-1">
            <stop stop-color="#FFFFFF" stop-opacity="0.196727808" offset="0%"></stop>
            <stop stop-color="#FFFFFF" stop-opacity="0" offset="100%"></stop>
        </radialGradient>
        <circle id="path-2" cx="348.5" cy="348.5" r="348.5"></circle>
        <linearGradient x1="100%" y1="50%" x2="0%" y2="50%" id="linearGradient-3">
            <stop stop-color="#F6F3F3" offset="0%"></stop>
            <stop stop-color="#FFFFFF" offset="50.2289306%"></stop>
            <stop stop-color="#F5F5F5" offset="100%"></stop>
        </linearGradient>
        <path d="M150.177899,439.743404 L157.017074,468.915952 C157.547019,471.176435 159.563314,472.774701 161.885087,472.774701 L537.856762,472.774701 C540.122991,472.774701 542.105838,471.250496 542.688612,469.06048 L550.459673,439.857455 C551.169788,437.188902 549.58216,434.449951 546.913607,433.739836 C546.810599,433.712425 546.70674,433.688315 546.602191,433.667543 C480.608641,420.555848 415.212416,414 350.413516,414 C285.564209,414 220.116648,420.566051 154.070832,433.698153 L154.070832,433.698155 C151.362429,434.236676 149.603391,436.868828 150.141911,439.577231 C150.152965,439.632822 150.164962,439.688221 150.177899,439.743404 Z" id="path-4"></path>
    </defs>
    <g id="Page-1" stroke="none" stroke-width="1" fill="none" fill-rule="evenodd">
        <g id="Group">
            <g id="Oval">
                <use fill="#EDEDED" xlink:href="#path-2"></use>
                <use fill="url(#radialGradient-1)" xlink:href="#path-2"></use>
            </g>
            <path d="M119,319.672834 C148.620798,247.224278 178.973581,211 210.05835,211 C237.765116,211 265.859584,239.779029 294.341755,297.337087 L294.341757,297.337086 C295.566482,299.812064 294.552951,302.811267 292.077972,304.035991 C290.325716,304.903082 288.228824,304.66935 286.710506,303.437701 C260.49728,282.173727 234.946561,271.54174 210.05835,271.54174 C179.485304,271.54174 149.132521,287.585438 119,319.672834 Z" id="Path-2" fill="#CCCACA"></path>
            <path d="M407.807403,319.672834 C437.428201,247.224278 467.780984,211 498.865753,211 C526.479677,211 554.47871,239.586483 582.862852,296.75945 L582.862853,296.759449 C584.090792,299.232834 583.081159,302.23335 580.607774,303.461288 C578.841221,304.338313 576.724162,304.094925 575.20272,302.839897 C549.099858,281.307792 523.654202,270.54174 498.865753,270.54174 C468.292707,270.54174 437.939924,286.918771 407.807403,319.672834 Z" id="Path-2" fill="#CCCACA" transform="translate(495.596452, 265.336417) scale(-1, 1) translate(-495.596452, -265.336417) "></path>
            <path d="M112.96575,412.855114 C191.327397,394.951705 269.689045,386 348.050692,386 C426.412339,386 504.773987,394.951705 583.135634,412.855114 C583.135634,560.904675 504.773987,634.929456 348.050692,634.929456 C191.327397,634.929456 112.96575,560.904675 112.96575,412.855114 Z" id="Path-3" fill="#CCCACA"></path>
            <g id="Path-4">
                <use fill="#FFFFFF" xlink:href="#path-4"></use>
                <use fill="url(#linearGradient-3)" xlink:href="#path-4"></use>
            </g>
            <path d="M259.66659,593.462897 C279.67236,584.010317 294.275892,578.595011 303.477187,577.216982 C319.83431,574.767261 326.674282,584.199608 347.678552,584.199608 C368.682822,584.199608 362.379564,572.225949 395.873698,577.216982 C413.816,579.890603 428.529715,585.131545 440.014843,592.939809 L440.014842,592.939812 C442.298485,594.492366 442.891149,597.602219 441.338595,599.885862 C440.685022,600.847198 439.716908,601.550765 438.600742,601.87557 C398.943247,613.415901 368.719757,619.186067 347.930273,619.186067 C327.697232,619.186067 298.528443,613.720652 260.423906,602.789823 L260.423906,602.78982 C257.769541,602.028377 256.235023,599.259317 256.996466,596.604952 C257.393106,595.222278 258.366019,594.077408 259.66659,593.462897 Z" id="Path-5" fill="#E3E3E3"></path>
        </g>
    </g>
</svg>