<svg width="516" height="517" xmlns="http://www.w3.org/2000/svg" xmlns:xlink="http://www.w3.org/1999/xlink"><defs><path d="M494 73V6h-67a3 3 0 0 1 0-6h70a3 3 0 0 1 3 3v70a3 3 0 0 1-6 0z" id="b"/><filter x="-23.7%" y="-18.4%" width="142.1%" height="142.1%" filterUnits="objectBoundingBox" id="a"><feOffset dx="-2" dy="2" in="SourceAlpha" result="shadowOffsetOuter1"/><feGaussianBlur stdDeviation="5" in="shadowOffsetOuter1" result="shadowBlurOuter1"/><feColorMatrix values="0 0 0 0 0.270588235 0 0 0 0 0.298039216 0 0 0 0 0.976470588 0 0 0 0.107931386 0" in="shadowBlurOuter1"/></filter><path d="M497 500h-70a3 3 0 0 1 0-6h67v-67a3 3 0 0 1 6 0v70a3 3 0 0 1-3 3z" id="d"/><filter x="-23.7%" y="-23.7%" width="142.1%" height="142.1%" filterUnits="objectBoundingBox" id="c"><feOffset dx="-2" dy="-2" in="SourceAlpha" result="shadowOffsetOuter1"/><feGaussianBlur stdDeviation="5" in="shadowOffsetOuter1" result="shadowBlurOuter1"/><feColorMatrix values="0 0 0 0 0.270588235 0 0 0 0 0.298039216 0 0 0 0 0.976470588 0 0 0 0.107931386 0" in="shadowBlurOuter1"/></filter><path d="M0 73V3a3 3 0 0 1 3-3h70a3 3 0 0 1 0 6H6v67a3 3 0 0 1-6 0z" id="f"/><filter x="-18.4%" y="-19.7%" width="142.1%" height="142.1%" filterUnits="objectBoundingBox" id="e"><feOffset dx="2" dy="1" in="SourceAlpha" result="shadowOffsetOuter1"/><feGaussianBlur stdDeviation="5" in="shadowOffsetOuter1" result="shadowBlurOuter1"/><feColorMatrix values="0 0 0 0 0.270588235 0 0 0 0 0.298039216 0 0 0 0 0.976470588 0 0 0 0.107931386 0" in="shadowBlurOuter1"/></filter><path d="M3 500a3 3 0 0 1-3-3v-70a3 3 0 0 1 6 0v67h67a3 3 0 0 1 0 6H3z" id="h"/><filter x="-18.4%" y="-23.7%" width="142.1%" height="142.1%" filterUnits="objectBoundingBox" id="g"><feOffset dx="2" dy="-2" in="SourceAlpha" result="shadowOffsetOuter1"/><feGaussianBlur stdDeviation="5" in="shadowOffsetOuter1" result="shadowBlurOuter1"/><feColorMatrix values="0 0 0 0 0.270588235 0 0 0 0 0.298039216 0 0 0 0 0.976470588 0 0 0 0.107931386 0" in="shadowBlurOuter1"/></filter></defs><g fill-rule="nonzero" fill="none"><g transform="translate(8 9)"><use fill="#000" filter="url(#a)" xlink:href="#b"/><use fill="#FFF" xlink:href="#b"/></g><g transform="translate(8 9)"><use fill="#000" filter="url(#c)" xlink:href="#d"/><use fill="#FFF" xlink:href="#d"/></g><g transform="translate(8 9)"><use fill="#000" filter="url(#e)" xlink:href="#f"/><use fill="#FFF" xlink:href="#f"/></g><g transform="translate(8 9)"><use fill="#000" filter="url(#g)" xlink:href="#h"/><use fill="#FFF" xlink:href="#h"/></g></g></svg>